<?xml version="1.0" encoding="utf-8"?>
<!-- Generator: Adobe Illustrator 16.0.0, SVG Export Plug-In . SVG Version: 6.00 Build 0)  -->
<!DOCTYPE svg PUBLIC "-//W3C//DTD SVG 1.1//EN" "http://www.w3.org/Graphics/SVG/1.1/DTD/svg11.dtd">
<svg version="1.1" id="Capa_1" xmlns="http://www.w3.org/2000/svg" xmlns:xlink="http://www.w3.org/1999/xlink" x="0px" y="0px"
	 width="141.73px" height="141.73px" viewBox="0 0 141.73 141.73" enable-background="new 0 0 141.73 141.73" xml:space="preserve">
<g>
	<path fill-rule="evenodd" clip-rule="evenodd" fill="#EA5076" d="M106.347,55.85c-0.734,1.898-0.52,4.02-1.396,5.885
		c-0.383,0.657-0.852,0.42-1.271,0.079c-0.521-0.425-1.128-0.777-1.419-1.433c-0.09-0.25-0.132-0.509-0.15-0.773
		c-0.019-0.177-0.02-0.355-0.015-0.533c1.09-5.617,1.035-11.2-0.564-16.721c-2.725-9.403-8.372-16.53-16.915-21.343
		c-5.334-3.004-11.1-4.562-17.223-4.413c-12.966,0.315-22.958,6.002-29.982,16.87c-0.343,0.532-0.632,1.097-0.997,1.616
		c-0.201,0.29-0.406,0.578-0.68,0.807c-0.155,0.089-0.322,0.131-0.501,0.13c-0.885-0.443-1.952-0.701-2.043-1.966
		c3.86-7.756,9.865-13.345,17.59-17.14c4.168-2.047,8.59-3.274,13.244-3.601c2.167-0.277,4.344-0.046,6.513-0.122
		c8.432-0.047,15.626,3.228,21.951,8.48c6.659,5.53,11.154,12.505,13.194,20.98c0.418,1.737,0.283,3.523,0.663,5.253
		C106.347,50.553,106.347,53.201,106.347,55.85z"/>
	<path fill-rule="evenodd" clip-rule="evenodd" fill="#D3282F" d="M29.101,56.163c-0.13-0.104-0.259-0.208-0.389-0.313
		c0-0.46,0-0.921,0-1.382c0.291-1.727,0.291-3.455,0-5.182c0-0.346,0-0.691,0-1.037c0.733-0.018,1.093,0.583,1.572,0.966
		c7.956,6.364,16.395,11.883,26.234,14.965c0.912-0.052,1.738,0.232,2.292,0.928c1.245,1.56,2.26,3.24,2.116,5.359
		c-0.926,0.541-1.898,0.308-2.862,0.156c-8.095-1.268-15.167-4.968-21.985-9.243c-1.217-0.763-2.484-1.46-3.603-2.373
		C31.438,57.958,30.027,57.345,29.101,56.163z"/>
	<path fill-rule="evenodd" clip-rule="evenodd" fill="#F2ACBA" d="M70.995,13.012c-0.005,0.102,0.008,0.202,0.037,0.3
		c-2.335,0-4.671,0-7.006,0c0.029-0.098,0.041-0.198,0.038-0.3C66.374,13.012,68.685,13.012,70.995,13.012z"/>
	<path fill-rule="evenodd" clip-rule="evenodd" fill="#F2AAB9" d="M64.41,90.742c-0.008-0.099-0.022-0.196-0.043-0.293
		c1.999-0.938,3.995-0.97,5.988,0.018c-0.008,0.094-0.026,0.186-0.054,0.275C68.338,90.742,66.374,90.742,64.41,90.742z"/>
	<path fill-rule="evenodd" clip-rule="evenodd" fill="#D94F57" d="M28.712,49.286c0.54,1.727,0.542,3.455,0,5.182
		C28.712,52.741,28.712,51.013,28.712,49.286z"/>
	<path fill-rule="evenodd" clip-rule="evenodd" fill="#EA4F75" d="M60.926,70.376c-0.364-0.953-0.792-1.888-1.078-2.863
		c-0.508-1.738-1.732-2.709-3.332-3.333c-0.021-0.208-0.025-0.42-0.069-0.624c-0.229-1.051,0.664-2.458-0.118-3.057
		c-0.713-0.546-2.09-0.229-3.177-0.293c0.359-3.14,0.357-3.135-2.525-4.682c-0.551-0.295-1.076-0.641-1.613-0.963
		c-0.182-2.105,1.229-3.676,1.854-5.509c0.468-0.69,0.603-1.399,0.113-2.143c-0.241-0.517-0.524-1.007-0.846-1.479
		c-1.771-3.117-1.88-6.191,0.089-9.299c0.797-1.259,1.273-2.716,2.216-3.897c1.047-1.312,1.83-1.356,2.958-0.1
		c1.658,1.847,3.515,3.498,5.199,5.314c0.909,0.98,1.883,1.428,3.223,1.059c2.784-0.767,5.558-0.856,8.336,0.125
		c1.325,0.468,2.344-0.288,3.249-1.145c1.592-1.505,3.096-3.1,4.676-4.618c1.633-1.568,2.373-1.387,3.188,0.764
		c0.571,1.507,1.074,3.043,1.709,4.523c0.896,2.089,0.901,4.129-0.086,6.174c-0.181,0.374-0.324,0.764-0.471,1.153
		c-0.271,0.58-0.511,1.172-0.701,1.784c-0.361,0.755-0.094,1.424,0.249,2.104c0.639,1.267,1.313,2.515,1.896,3.808
		c0.472,1.047,0.255,1.77-1.013,1.924c-3.438,1.267-3.438,1.267-3.059,5.137c-0.403,0.655-1.088,0.536-1.684,0.551
		c-1.05,0.026-1.449,0.5-1.222,1.511c0.211,0.932-0.075,1.67-0.85,2.225c-0.483,0.436-1.037,0.784-1.529,1.207
		c-0.352,0.335-0.543,0.765-0.714,1.207c-0.854,4.493-4.782,5.457-8.165,7.014c-0.808,0.372-1.546-0.234-2.264-0.572
		c-0.624-0.293-1.241-0.6-1.851-0.92c-0.283-0.147-0.562-0.307-0.845-0.456c-0.278-0.141-0.556-0.281-0.834-0.425
		C61.408,71.276,60.785,71.11,60.926,70.376z"/>
	<path fill-rule="evenodd" clip-rule="evenodd" fill="#106446" d="M51.24,48.953c-0.458,1.982-1.639,3.678-2.225,5.609
		c-6.604-3.414-12.484-7.851-18.096-12.673c-0.504-0.434-0.691-0.864-0.462-1.482c0.632-1.706,1.102-3.478,2.067-5.047
		c1.188,0.07,1.853,0.98,2.668,1.65c4.464,4.059,9.381,7.503,14.511,10.663C50.269,48.02,51.008,48.194,51.24,48.953z"/>
	<path fill-rule="evenodd" clip-rule="evenodd" fill="#CE6577" d="M34.889,37.215c-0.788-0.619-1.576-1.237-2.364-1.856
		c0.071-0.512,0.304-0.942,0.667-1.306c0.59,0.79,1.467,1.234,2.218,1.83C35.695,36.505,35.566,36.967,34.889,37.215z"/>
	<path fill-rule="evenodd" clip-rule="evenodd" fill="#EA5076" d="M70.355,90.467c-1.996-0.006-3.992-0.012-5.988-0.018
		C46.83,89.288,32.172,75.477,29.452,58.948c0.413-0.77,0.968-0.393,1.446-0.132c0.597,0.326,1.202,0.646,1.763,1.038
		c0.463,0.414,0.631,0.984,0.827,1.542c0.144,0.483,0.221,0.986,0.414,1.457c3.812,10.62,10.823,18.298,21.506,22.125
		c12.47,4.466,24.038,2.287,34.499-5.788c0.208-0.146,0.427-0.278,0.646-0.407c0.291-0.164,0.587-0.313,0.939-0.224
		c0.715,0.626,1.357,1.313,1.751,2.196c-5.354,5.042-11.771,7.937-18.942,9.278C73.004,90.275,71.671,90.327,70.355,90.467z"/>
	<path fill-rule="evenodd" clip-rule="evenodd" fill="#D4282F" d="M77.512,64.509c0.596-0.654,1.328-1.165,0.9-2.317
		c-0.54-1.454,0.103-2.111,1.671-1.901c0.558,0.075,1.14-0.027,1.711-0.049c5.985,4.153,10.896,9.484,16.057,14.542
		c0.484,0.475,0.459,0.762,0.055,1.239c-1.075,1.271-2.119,2.565-3.379,3.665c-1.324-0.032-1.743-1.303-2.645-1.914
		c-4.208-4.258-8.495-8.428-13.339-11.985C78.106,65.467,77.512,65.208,77.512,64.509z"/>
	<path fill-rule="evenodd" clip-rule="evenodd" fill="#066D4A" d="M84.853,55.104c0.916-0.441,1.104-0.978,0.529-1.927
		c-0.815-1.349-1.429-2.818-2.17-4.214c-0.383-0.723-0.413-1.335,0.276-1.873c0.497-0.245,0.889,0.035,1.271,0.274
		c4.867,3.042,9.392,6.528,13.572,10.454c0.541,0.508,1.064,1.048,1.229,1.82c-0.798,1.938-2.446,3.091-4.02,4.314
		C92.088,60.872,88.775,57.622,84.853,55.104z"/>
	<path fill-rule="evenodd" clip-rule="evenodd" fill="#057750" d="M95.542,63.953c1.009-1.675,2.747-2.691,3.874-4.261
		c1.351-0.087,1.715,1.23,2.6,1.808c0.734,0.898,1.826,1.503,2.229,2.677c-0.527,2.06-1.471,3.943-2.374,5.737
		C99.751,67.917,97.646,65.935,95.542,63.953z"/>
	<path fill-rule="evenodd" clip-rule="evenodd" fill="#D76279" d="M104.244,64.176c-0.904-0.731-1.755-1.516-2.433-2.468
		c-0.107-0.635-0.123-1.227,0.671-1.446c0.885,0.387,1.136,1.832,2.469,1.472C104.941,62.613,104.607,63.399,104.244,64.176z"/>
	<path fill-rule="evenodd" clip-rule="evenodd" fill="#D56076" d="M92.152,77.612c0.791,0.691,1.583,1.383,2.374,2.074
		c-0.428,0.356-0.855,0.711-1.283,1.067c-0.905-0.452-1.417-1.242-1.825-2.119C91.294,78.031,91.636,77.76,92.152,77.612z"/>
	<path fill-rule="evenodd" clip-rule="evenodd" fill="#FEFFFF" d="M84.499,44.439c1.181-2.497,0.754-4.886-0.373-7.288
		c-0.606-1.293-1.001-2.686-1.506-4.028c-0.404-1.073-0.929-1.334-1.851-0.394c-1.895,1.934-3.89,3.771-5.778,5.71
		c-0.78,0.8-1.612,1.099-2.625,0.712c-3.044-1.161-6.1-0.922-9.139-0.07c-1.042,0.292-1.715,0.045-2.425-0.725
		c-1.835-1.99-3.754-3.903-5.625-5.861c-1.381-1.447-1.503-1.452-2.606,0.274c-0.494,0.774-0.893,1.609-1.394,2.379
		c-2.168,3.332-2.736,6.749-0.624,10.332c-0.614,0.31-0.627,0.33-1.231-0.054c-3.931-2.496-7.77-5.126-11.259-8.213
		c-0.719-0.636-1.958-0.825-2.06-2.081c5.341-9.944,13.587-16.173,24.646-18.277c19.946-3.795,38.432,8.903,42.127,28.746
		c0.847,4.545,0.772,9.138-0.302,13.675c-0.331,0.083-0.545-0.111-0.739-0.325c-4.799-5.27-10.541-9.396-16.365-13.423
		C84.99,45.267,84.326,45.166,84.499,44.439z"/>
	<path fill-rule="evenodd" clip-rule="evenodd" fill="#DFDCD9" d="M102.482,60.262c-0.224,0.482-0.447,0.964-0.671,1.446
		c-0.925-0.523-1.378-1.604-2.396-2.016c-1.9-2.45-4.316-4.374-6.719-6.267c-2.798-2.205-5.796-4.157-8.713-6.209
		c-0.131-0.092-0.329-0.086-0.496-0.125c-0.001-0.616,0.239-1.144,0.598-1.629c0.642-0.314,1.121,0.097,1.563,0.419
		c3.699,2.697,7.696,5.022,10.973,8.251c1.908,1.88,3.969,3.595,5.83,5.52C102.463,59.855,102.473,60.059,102.482,60.262z"/>
	<path fill-rule="evenodd" clip-rule="evenodd" fill="#DFDBD9" d="M34.889,37.215c0.173-0.444,0.347-0.889,0.52-1.333
		c0.079-0.025,0.158-0.049,0.237-0.072c1.676,0.721,2.916,2.031,4.271,3.177c3.531,2.985,7.456,5.398,11.349,7.86
		c0.839,0.712,0.601,1.411-0.025,2.105C45.328,45.679,39.886,41.755,34.889,37.215z"/>
	<path fill-rule="evenodd" clip-rule="evenodd" fill="#EFEEED" d="M102.452,59.652c-1.488-1.107-3.152-1.962-4.343-3.479
		c-1.533-1.952-3.529-3.443-5.539-4.869c-2.8-1.986-5.49-4.135-8.484-5.842c0.057-0.373,0.074-0.762,0.413-1.022
		c5.796,4.019,11.642,7.977,16.499,13.165c0.508,0.542,0.984,1.115,1.476,1.673C102.467,59.402,102.459,59.527,102.452,59.652z"/>
	<path fill-rule="evenodd" clip-rule="evenodd" fill="#EFEEED" d="M51.265,46.848c-0.426,0.58-0.867,0.159-1.191-0.065
		c-4.796-3.313-9.642-6.56-14.03-10.417c-0.167-0.146-0.267-0.368-0.397-0.555c0.119-0.226,0.237-0.452,0.356-0.677
		c4.523,3.717,9.219,7.202,14.121,10.408c0.091,0.06,0.284-0.037,0.43-0.061C50.943,45.857,51.138,46.335,51.265,46.848z"/>
	<path fill-rule="evenodd" clip-rule="evenodd" fill="#D66378" d="M32.542,60.005c-1.186,0.1-1.77-1.549-3.09-1.057
		c-0.203-0.917-0.53-1.819-0.352-2.785c1.33,0.542,2.381,1.479,3.427,2.422C32.804,59.056,32.957,59.527,32.542,60.005z"/>
	<path fill-rule="evenodd" clip-rule="evenodd" fill="#E0DCDA" d="M32.542,60.005c-0.005-0.473-0.01-0.946-0.015-1.419
		c7.979,5.259,16.132,10.138,25.823,11.608c0.849,0.128,1.717,0.125,2.576,0.183c0.368,0.328,0.735,0.655,1.102,0.983
		c-0.651,1.08-1.692,0.984-2.729,0.901c-1.888-0.151-3.753-0.447-5.605-0.831c-0.171-0.029-0.337-0.077-0.5-0.132
		c-3.214-0.967-6.309-2.242-9.356-3.635c-0.151-0.062-0.297-0.137-0.44-0.215c-3.553-1.77-6.84-3.993-10.259-5.993
		C32.939,60.972,32.741,60.488,32.542,60.005z"/>
	<path fill-rule="evenodd" clip-rule="evenodd" fill="#FEFFFF" d="M81.44,33.493c0.525,1.474,0.705,2.482,1.207,3.293
		c2.01,3.25,1.227,6.343-0.284,9.469c-0.353,0.73-0.6,0.987-1.316,0.391c-1.017-0.847-2.088-1.631-3.159-2.41
		c-0.426-0.31-0.899-0.941-1.447-0.202c-0.538,0.727,0.32,0.832,0.63,1.119c0.546,0.507,1.122,1.024,1.773,1.372
		c2.62,1.398,3.841,3.839,5.005,6.367c0.341,0.742,0.323,1.144-0.481,1.431c-0.486,0.173-0.924,0.487-1.414,0.643
		c-1.586,0.504-2.495,1.313-1.745,3.133c0.388,0.942-0.371,0.832-0.941,0.865c-2.396,0.14-2.387,0.143-2.141,2.571
		c0.068,0.664,0.355,1.461-0.404,1.888c-1.99,1.119-2.624,3.102-3.364,5.029c-0.253,0.659-0.57,1.232-1.277,1.538
		c-0.819,0.354-1.582,1.037-2.383-0.076c-0.373-0.517-1.128-0.047-1.781-0.538c0.534-0.504,0.999-1.068,1.577-1.467
		c1.793-1.235,2.221-2.882,1.802-4.935c-0.286-1.402-0.34-2.85-0.555-4.269c-0.101-0.664,0.091-1.081,0.667-1.42
		c0.843-0.497,1.662-1.039,2.465-1.598c0.394-0.273,1.084-0.44,0.839-1.116c-0.231-0.637-0.868-0.402-1.366-0.418
		c-0.268-0.009-0.535-0.029-0.997-0.055c0.627-0.752,0.822-1.814,2.046-1.072c0.455,0.276,0.761-0.036,0.938-0.445
		c0.214-0.491-0.252-0.556-0.505-0.733c-1.031-0.72-1.948-0.888-2.718,0.414c-0.407,0.687-0.956,1.301-1.501,1.893
		c-0.722,0.784-0.765,1.393,0.589,1.859c-2.655,0.928-1.607,2.885-1.482,4.445c0.235,2.94,0.33,2.933-2.606,2.932
		c-0.462,0-0.927-0.031-1.386,0.006c-0.887,0.071-1.113-0.357-0.968-1.148c0.155-0.847,0.198-1.723,0.437-2.544
		c0.521-1.789,0.576-3.333-2.054-4.018c1.69-0.307,1.86-0.873,0.972-1.787c-0.399-0.411-0.801-0.853-1.068-1.353
		c-0.817-1.524-1.916-1.324-3.174-0.646c-0.438,0.236-0.848,0.388-0.585,1.001c0.244,0.569,0.654,0.383,0.989,0.183
		c1.095-0.655,1.688-0.151,2.129,0.832c-0.114,0.06-0.2,0.134-0.297,0.152c-0.694,0.128-1.727-0.621-2.034,0.274
		c-0.34,0.993,0.879,1.246,1.511,1.538c2.193,1.012,3.034,2.397,2.188,4.844c-1.223,3.536-1.159,6.793,3.623,8.545
		c-1.498,0.479-2.377,0.672-3.192,1.185c-0.877,0.552-1.828-0.228-2.272-1.174c-0.512-1.089-0.911-2.232-1.377-3.343
		c-0.22-0.525-0.379-1.138-0.955-1.387c-1.832-0.793-2.065-2.273-1.724-3.966c0.274-1.357-0.298-1.778-1.563-1.606
		c-1.397,0.189-1.928-0.273-1.343-1.7c0.367-0.894,0.038-1.477-0.931-1.828c-1.13-0.41-2.752-0.729-3.146-1.564
		c-0.466-0.987,0.907-2.211,1.176-3.42c0.598-2.685,2.963-3.228,4.926-4.342c0.687-0.39,2.449-0.307,1.792-1.597
		c-0.541-1.063-1.475,0.421-2.299,0.513c-0.216,0.024-0.417,0.188-0.624,0.29c-3.225,1.588-3.137,1.547-4.654-1.646
		c-0.971-2.043-1.015-3.91,0.052-5.89c0.838-1.556,1.536-3.187,2.377-4.349c2.159,1.991,4.366,3.929,6.448,5.993
		c0.897,0.89,1.642,1.365,2.993,0.954c3.269-0.994,6.573-0.948,9.833,0.17c0.985,0.338,1.739,0.051,2.455-0.722
		C77.271,37.772,79.25,35.769,81.44,33.493z"/>
	<path fill-rule="evenodd" clip-rule="evenodd" fill="#FEFFFF" d="M90.367,79.247c-5.004,4.476-10.945,7.014-17.51,7.976
		c-17.137,2.51-33.221-7.209-39.073-23.463c-0.114-0.317-0.154-0.662-0.229-0.993c0.353-0.878,0.896-0.321,1.244-0.079
		c0.892,0.621,1.837,1.133,2.798,1.629c6.873,4.237,14.144,7.41,22.27,8.314c1.24,0.138,2.321-0.611,3.538-0.569
		c0.057,0.009,0.13-0.003,0.168,0.028c3.92,3.203,6.93-0.009,10.014-1.613c1.231-0.641,1.196-2.646,1.978-3.915
		c0.728-0.471,1.215,0.113,1.677,0.46c3.766,2.831,7.506,5.699,10.567,9.318C88.643,77.327,89.934,77.915,90.367,79.247z"/>
	<path fill-rule="evenodd" clip-rule="evenodd" fill="#DFDBD8" d="M92.152,77.612c-0.245,0.341-0.489,0.682-0.734,1.022
		c-0.223,0.114-0.444,0.229-0.666,0.342c-3.811-4.701-8.572-8.362-13.282-12.082c-0.481-0.381-1.106-0.646-1.231-1.355
		c0.425-0.344,0.849-0.687,1.273-1.03C82.876,68.339,87.602,72.879,92.152,77.612z"/>
	<path fill-rule="evenodd" clip-rule="evenodd" fill="#EEEDEC" d="M76.238,65.54c4.739,3.541,9.437,7.128,13.442,11.521
		c0.516,0.564,0.98,1.129,1.071,1.916c-0.128,0.091-0.256,0.181-0.385,0.271c-1.66-1.176-2.781-2.89-4.229-4.255
		c-2.497-2.355-5.192-4.505-7.857-6.677c-0.828-0.675-1.605-1.489-2.717-1.753C75.633,66.119,75.797,65.738,76.238,65.54z"/>
	<path fill-rule="evenodd" clip-rule="evenodd" fill="#F0EFEE" d="M63.404,72.062c-1.991,1.652-4.313,1.009-6.421,0.633
		c-6.846-1.222-13.078-4.097-19.035-7.592c-0.232-0.137-0.384-0.407-0.574-0.615c1.469-0.131,2.5,0.872,3.654,1.485
		c0.853,0.453,1.694,0.914,2.59,1.276l-0.001-0.001c3.114,1.577,6.298,2.973,9.706,3.801l-0.001-0.001
		c2.087,0.717,4.303,0.744,6.447,1.161c0.991,0.192,1.955-0.409,2.959-0.493C63.007,71.725,63.256,71.793,63.404,72.062z"/>
	<path fill-rule="evenodd" clip-rule="evenodd" fill="#FDF8F9" d="M67.098,64.59c0.202,0,0.264-0.013,0.317,0.002
		c0.831,0.238,2.233-0.355,2.422,0.591c0.239,1.195-1.224,1.75-2.03,2.491c-0.447,0.411-1.011,0.104-1.361-0.311
		c-0.562-0.668-1.859-0.917-1.656-1.98C65.069,63.931,66.414,64.862,67.098,64.59z"/>
	<path fill-rule="evenodd" clip-rule="evenodd" fill="#EFEEED" d="M62.726,71.715c-1.856,1.549-3.897,0.424-5.812,0.258
		c-1.182-0.103-2.567,0.009-3.594-0.927c1.889-0.023,3.689,0.61,5.573,0.74c1.137,0.079,2.128,0.009,3.135-0.427
		C62.261,71.478,62.494,71.597,62.726,71.715z"/>
	<path fill-rule="evenodd" clip-rule="evenodd" fill="#FEFBFC" d="M69.418,71.065c-2.322,1.626-2.325,1.626-4.029,0.201
		C66.65,70.79,67.848,71.027,69.418,71.065z"/>
	<path fill-rule="evenodd" clip-rule="evenodd" fill="#EFEEED" d="M43.617,67.248c-1.567,0.021-2.558-1.223-3.874-1.754
		c-0.796-0.321-1.481-0.9-2.37-1.006c-0.91-0.173-1.678-0.621-2.403-1.18c-0.408-0.314-0.728-0.928-1.415-0.542
		c-0.429-0.345-0.311-0.864-0.417-1.311c0.465-0.506,0.885-0.068,1.191,0.156C37.262,63.761,40.574,65.285,43.617,67.248z"/>
	<path fill-rule="evenodd" clip-rule="evenodd" fill="#EA4F7E" d="M74.853,19.573c1.798,0.079,3.168,1.455,3.045,3.06
		c-0.12,1.568-1.495,2.835-2.992,2.756c-1.81-0.096-3.223-1.459-3.141-3.03C71.853,20.661,73.143,19.498,74.853,19.573z"/>
	<path fill-rule="evenodd" clip-rule="evenodd" fill="#E94B7C" d="M64.7,21.663c0-0.16-0.008-0.219,0.001-0.275
		c0.129-0.811-0.534-2.014,0.353-2.363c1.011-0.398,2.295-0.355,3.4,0.016c1.052,0.354,1.574,4.218,0.665,4.841
		c-1.233,0.845-2.782,0.801-3.999,0.369C64.243,23.938,64.903,22.482,64.7,21.663z"/>
	<path fill-rule="evenodd" clip-rule="evenodd" fill="#E94B7C" d="M59.604,19.832c1.771,0.002,2.846,1.119,2.822,2.93
		c-0.022,1.664-1.37,2.824-3.233,2.782c-1.627-0.037-2.753-1.205-2.755-2.859C56.436,20.994,57.728,19.83,59.604,19.832z"/>
	<path fill-rule="evenodd" clip-rule="evenodd" fill="#EA4E7E" d="M82.159,22.27c1.021,0.121,1.967,0.562,2.398,1.741
		c0.119,0.324,0.277,0.71-0.062,0.952c-0.346,0.246-0.668-0.072-0.918-0.271c-0.21-0.166-0.303-0.473-0.477-0.693
		c-0.259-0.327-0.62-0.644-1.011-0.344c-0.538,0.413,0.025,0.682,0.264,0.944c0.27,0.297,0.601,0.537,0.886,0.821
		c0.48,0.479,0.762,1.013,0.402,1.699c-0.318,0.607-0.821,1.057-1.492,1.013c-1.346-0.088-2.427-0.687-2.997-1.986
		c-0.143-0.325-0.246-0.725,0.074-0.951c0.413-0.291,0.785,0.036,1.051,0.321c0.47,0.502,0.847,1.769,1.537,1.128
		c0.736-0.686-0.617-1.065-1.027-1.57c-0.481-0.592-0.737-1.124-0.444-1.873C80.654,22.409,81.281,22.261,82.159,22.27z"/>
	<path fill-rule="evenodd" clip-rule="evenodd" fill="#EA4E7E" d="M52.771,28.529c-0.556,0.072-0.707-0.266-0.878-0.553
		c-0.641-1.079-1.274-2.163-1.907-3.247c-0.271-0.463-0.259-0.832,0.274-1.137c0.597-0.343,0.824,0.033,1.066,0.448
		c0.172,0.295,0.378,0.577,0.514,0.888c0.607,1.398,1.307,2.461,2.924,1.031c0.278-0.246,0.643-0.278,0.894,0.08
		c0.175,0.25,0.221,0.584-0.057,0.763C54.643,27.418,53.657,27.993,52.771,28.529z"/>
	<path fill-rule="evenodd" clip-rule="evenodd" fill="#EFEEED" d="M53.322,71.048c-3.559-0.446-6.71-1.924-9.706-3.801
		C46.851,68.514,50.086,69.781,53.322,71.048z"/>
	<path fill-rule="evenodd" clip-rule="evenodd" fill="#EA4D7D" d="M64.248,78.946c0.662,0.127,1.285,0.236,1.903,0.37
		c0.733,0.158,1.646,0.832,1.295,1.285c-0.96,1.242,0.983,3.018-0.779,3.843c-1.295,0.605-2.702,0.092-4.036-0.198
		c-0.129-0.027-0.289-0.379-0.266-0.56c0.181-1.42,0.367-2.842,0.624-4.25C63.134,78.637,63.85,79.159,64.248,78.946z"/>
	<path fill-rule="evenodd" clip-rule="evenodd" fill="#EA4C7D" d="M61.664,80.412c0.025,1.613-1.162,2.929-2.702,2.995
		c-1.701,0.073-3.229-1.245-3.289-2.838c-0.066-1.769,1.07-2.998,2.778-3.007C60.309,77.554,61.638,78.732,61.664,80.412z"/>
	<path fill-rule="evenodd" clip-rule="evenodd" fill="#EA4E7E" d="M54.648,79.596c-1.131,1.182-2.385,1.072-3.601,0.302
		c-1.082-0.685-1.767-1.662-1.356-3.05c0.392-1.324,1.209-2.294,2.655-2.311c1.503-0.017,2.621,0.741,3.146,2.216
		c0.219,0.616,0.38,1.389-0.326,1.622c-0.383,0.127-1.022-0.354-1.104-1.079c-0.117-1.037-0.782-1.578-1.797-1.288
		c-0.876,0.251-1.245,1.013-1.069,1.913c0.198,1.011,0.944,1.278,1.832,1.014C53.789,78.708,54.209,79.049,54.648,79.596z"/>
	<path fill-rule="evenodd" clip-rule="evenodd" fill="#EA4E7E" d="M76.36,83.605c-0.501,0.213-0.604-0.217-0.718-0.498
		c-0.215-0.527-0.352-1.087-0.532-1.629c-1.085-3.267-1.075-3.269,2.331-4.022c0.438-0.097,0.743-0.209,0.951,0.321
		c0.23,0.589-0.211,0.67-0.559,0.84c-0.051,0.025-0.121,0.017-0.164,0.049c-0.496,0.377-1.748,0.089-1.509,0.952
		c0.274,0.99,1.141,0.019,1.744-0.007c0.386-0.017,0.645-0.077,0.782,0.367c0.136,0.438-0.051,0.63-0.444,0.743
		c-0.273,0.078-0.531,0.208-0.803,0.294c-0.383,0.122-0.872,0.186-0.617,0.764c0.192,0.436,0.56,0.147,0.881,0.148
		c0.688,0.001,1.642-1.209,1.988,0.019c0.312,1.104-1.118,0.736-1.708,1.124C77.524,83.372,76.907,83.437,76.36,83.605z"/>
	<path fill-rule="evenodd" clip-rule="evenodd" fill="#EA4D7E" d="M74.387,84.104c-0.447,0.055-0.897,0.253-1.093,0.109
		c-1.441-1.063-2.642-1.02-3.682,0.551c-0.092,0.139-0.563,0.12-0.817,0.041c-0.347-0.108-0.274-0.476-0.201-0.729
		c0.411-1.422,0.774-2.864,1.301-4.244c0.411-1.077,1.178-1.253,1.879-0.216c0.733,1.087,1.373,2.237,2.041,3.367
		C74.013,83.316,74.169,83.674,74.387,84.104z"/>
	<path fill-rule="evenodd" clip-rule="evenodd" fill="#EA4E7E" d="M84.505,78.898c0.091,1.478-1.681,2.645-3.19,2.191
		c-0.399-0.12-0.861-0.296-0.844-0.729c0.021-0.544,0.558-0.737,1.009-0.661c0.598,0.102,1.258,0.268,1.47-0.417
		c0.287-0.928-0.485-1.601-0.955-2.268c-0.449-0.636-0.886,0.105-1.319,0.257c-0.398,0.14-0.788,0.62-1.177,0.01
		c-0.461-0.723,0.178-0.905,0.615-1.099c0.848-0.375,1.818-1.633,2.475-1.013C83.562,76.091,84.414,77.408,84.505,78.898z"/>
	<path fill-rule="evenodd" clip-rule="evenodd" fill="#FEFDFE" d="M76.301,22.403c-0.049,0.938-0.475,1.61-1.438,1.62
		c-0.924,0.01-1.495-0.527-1.487-1.517c0.008-0.944,0.447-1.54,1.435-1.575C75.81,20.896,76.273,21.454,76.301,22.403z"/>
	<path fill-rule="evenodd" clip-rule="evenodd" fill="#FBE8ED" d="M67.132,22.022c0.463,0.026,1.056,0.03,1.021,0.634
		c-0.039,0.683-0.701,0.621-1.205,0.651c-0.445,0.027-0.814-0.077-0.801-0.637C66.163,21.985,66.668,22.037,67.132,22.022z"/>
	<path fill-rule="evenodd" clip-rule="evenodd" fill="#FCF5F7" d="M67.834,20.43c0.044,0.489-0.314,0.573-0.66,0.6
		c-0.376,0.03-0.856,0.17-0.986-0.385c-0.126-0.537,0.201-0.712,0.683-0.702C67.271,19.951,67.702,19.899,67.834,20.43z"/>
	<path fill-rule="evenodd" clip-rule="evenodd" fill="#FDF9FB" d="M59.546,24.303c-1.038-0.108-1.614-0.724-1.634-1.688
		c-0.02-0.952,0.681-1.507,1.556-1.511c0.917-0.004,1.419,0.634,1.483,1.573C61.02,23.701,60.393,24.097,59.546,24.303z"/>
	<path fill-rule="evenodd" clip-rule="evenodd" fill="#FDF7F9" d="M64.679,82.364c0.452,0.128,1.139-0.115,1.258,0.565
		c0.094,0.545-0.426,0.581-0.815,0.552c-0.442-0.033-1.11,0.239-1.089-0.62C64.043,82.444,64.235,82.239,64.679,82.364z"/>
	<path fill-rule="evenodd" clip-rule="evenodd" fill="#FDFAFB" d="M66.017,80.938c-0.192,0.457-0.573,0.491-0.995,0.46
		c-0.427-0.032-0.833-0.088-0.747-0.662c0.082-0.544,0.448-0.559,0.892-0.448C65.555,80.385,65.975,80.408,66.017,80.938z"/>
	<path fill-rule="evenodd" clip-rule="evenodd" fill="#FEFCFD" d="M60.242,80.457c-0.266,0.856-0.659,1.675-1.717,1.56
		c-0.861-0.094-1.49-0.627-1.381-1.628c0.1-0.915,0.602-1.479,1.567-1.461C59.676,78.944,60.134,79.525,60.242,80.457z"/>
	<path fill-rule="evenodd" clip-rule="evenodd" fill="#FBEDF1" d="M71.016,81.066c0.328,0.476,0.784,0.767,0.484,1.263
		c-0.067,0.112-0.509,0.157-0.621,0.058C70.467,82.019,70.603,81.603,71.016,81.066z"/>
</g>
<text transform="matrix(1 0 0 1 23.7065 104.333)" stroke="#E50D38" stroke-miterlimit="10" font-family="'MonotypeCorsiva'" font-size="14">SextCinformativo </text>
</svg>
